<svg width="24" height="24" viewBox="0 0 24 24" fill="none" xmlns="http://www.w3.org/2000/svg">
<path d="M11.9988 12.7407C13.6556 12.7407 14.9988 11.3976 14.9988 9.74072C14.9988 8.08387 13.6556 6.74072 11.9988 6.74072C10.3419 6.74072 8.99878 8.08387 8.99878 9.74072C8.99878 11.3976 10.3419 12.7407 11.9988 12.7407Z" stroke="white" stroke-width="1.5" stroke-linecap="round" stroke-linejoin="round"/>
<path d="M19.4988 9.74072C19.4988 16.4907 11.9988 21.7407 11.9988 21.7407C11.9988 21.7407 4.49878 16.4907 4.49878 9.74072C4.49878 7.7516 5.28896 5.84394 6.69548 4.43742C8.102 3.0309 10.0097 2.24072 11.9988 2.24072C13.9879 2.24072 15.8956 3.0309 17.3021 4.43742C18.7086 5.84394 19.4988 7.7516 19.4988 9.74072V9.74072Z" stroke="white" stroke-width="1.5" stroke-linecap="round" stroke-linejoin="round"/>
</svg>
